<svg width="40" height="35" viewBox="0 0 40 35" fill="none" xmlns="http://www.w3.org/2000/svg">
<path d="M3.18178 35H36.8178C38.575 35 39.9996 33.338 39.9996 31.2879V3.71212C39.9996 1.66197 38.575 0 36.8178 0H3.18178C1.42453 0 0 1.66197 0 3.71212V31.2879C0 33.338 1.42453 35 3.18178 35Z" fill="#E0E0E0"/>
<path d="M21.8179 35H36.8178C38.575 35 39.9996 33.338 39.9996 31.2879V3.71212C39.9996 1.66197 38.575 0 36.8178 0H3.18178C1.42453 0 0 1.66197 0 3.71212L21.8179 35Z" fill="#D9D9D9"/>
<path d="M4.31348 35H36.8177C38.5749 35 39.9994 33.338 39.9994 31.2879V4.24243L4.31348 35Z" fill="#EEEEEE"/>
<path d="M21.587 35H36.8187C38.5759 35 40.0004 33.338 40.0004 31.2879V4.24243L15.2471 25.5776L21.587 35Z" fill="#E0E0E0"/>
<path d="M36.8178 2.12111H3.18178C1.42453 2.12111 0 1.66187 0 3.71202V31.2878C0 33.3379 1.42453 34.9999 3.18178 34.9999H4.5454V4.77263H35.4542V34.9999H36.8178C38.575 34.9999 39.9996 33.3379 39.9996 31.2878V3.71202C39.9996 1.66187 38.575 2.12111 36.8178 2.12111Z" fill="black"/>
<path d="M36.8178 0H19.9998H3.18178C1.42453 0 0 1.62909 0 3.71212C0 4.99121 1.37998 6.10697 1.37998 6.10697L19.9998 21.4836L38.6196 6.10803C38.6196 6.10803 39.9996 4.99121 39.9996 3.71318C39.9996 1.62909 38.575 0 36.8178 0Z" fill="#F5F5F5"/>
<path d="M37.496 0.0869141L19.9998 14.3181L2.50361 0.0869141C1.07272 0.444338 0 1.90585 0 3.71207C0 4.99116 1.37998 6.10691 1.37998 6.10691L19.9998 21.4836L38.6196 6.10797C38.6196 6.10797 39.9996 4.99116 39.9996 3.71313C39.9996 1.90585 38.9268 0.444338 37.496 0.0869141Z" fill="#323232"/>
</svg>
