<svg width="36" height="36" viewBox="0 0 36 36" fill="none" xmlns="http://www.w3.org/2000/svg">
<path d="M10.8004 0.399902C5.06439 0.399902 0.400391 5.0639 0.400391 10.7999V25.1999C0.400391 30.9359 5.06439 35.5999 10.8004 35.5999H25.2004C30.9364 35.5999 35.6004 30.9359 35.6004 25.1999V10.7999C35.6004 5.0639 30.9364 0.399902 25.2004 0.399902H10.8004ZM27.6004 6.7999C28.4804 6.7999 29.2004 7.5199 29.2004 8.3999C29.2004 9.2799 28.4804 9.9999 27.6004 9.9999C26.7204 9.9999 26.0004 9.2799 26.0004 8.3999C26.0004 7.5199 26.7204 6.7999 27.6004 6.7999ZM18.0004 9.1999C22.8564 9.1999 26.8004 13.1439 26.8004 17.9999C26.8004 22.8559 22.8564 26.7999 18.0004 26.7999C13.1444 26.7999 9.20039 22.8559 9.20039 17.9999C9.20039 13.1439 13.1444 9.1999 18.0004 9.1999ZM18.0004 10.7999C14.0324 10.7999 10.8004 14.0319 10.8004 17.9999C10.8004 21.9679 14.0324 25.1999 18.0004 25.1999C21.9684 25.1999 25.2004 21.9679 25.2004 17.9999C25.2004 14.0319 21.9684 10.7999 18.0004 10.7999Z" fill="#D9D9D9"/>
</svg>
