<svg width="38" height="38" viewBox="0 0 38 38" fill="none" xmlns="http://www.w3.org/2000/svg">
<path d="M19 0C8.50725 0 0 8.50725 0 19C0 22.5644 1.00121 25.8876 2.70898 28.7381L0.170085 38L9.62988 35.5168C12.3965 37.0897 15.5903 38 19 38C29.4927 38 38 29.4927 38 19C38 8.50725 29.4927 0 19 0ZM12.4966 10.137C12.8053 10.137 13.1226 10.1352 13.3965 10.1494C13.7353 10.1573 14.1041 10.1821 14.4572 10.9627C14.8768 11.8906 15.7904 14.2182 15.9076 14.4541C16.0247 14.69 16.1077 14.9679 15.9447 15.2767C15.7895 15.5934 15.7088 15.785 15.4808 16.0653C15.2449 16.3376 14.9864 16.6758 14.7726 16.8817C14.5367 17.1176 14.2931 17.3763 14.5654 17.8465C14.8378 18.3168 15.7836 19.8584 17.1816 21.1029C18.9787 22.7084 20.495 23.2017 20.9668 23.4377C21.4386 23.6736 21.7119 23.6368 21.9842 23.3201C22.2645 23.0114 23.1612 21.952 23.4779 21.4801C23.7866 21.0083 24.1018 21.09 24.5293 21.2451C24.9631 21.4003 27.2767 22.54 27.7485 22.7759C28.2204 23.0118 28.5297 23.1286 28.6484 23.3201C28.7704 23.5181 28.7705 24.4602 28.3794 25.5591C27.9883 26.6563 26.0679 27.7174 25.2065 27.7918C24.3373 27.8726 23.5261 28.1825 19.5566 26.6198C14.7686 24.734 11.7491 19.83 11.5132 19.5133C11.2773 19.2046 9.59587 16.9637 9.59587 14.652C9.59587 12.3324 10.812 11.1964 11.238 10.7246C11.6718 10.2528 12.1799 10.137 12.4966 10.137Z" fill="#D9D9D9"/>
</svg>
